HIERARCHY
ROOT Hips
{
	OFFSET 0.000000 0.000000 0.000000
	CHANNELS 6 Xposition Yposition Zposition Zrotation Yrotation Xrotation 
	JOINT LHipJoint
	{
		OFFSET 0.000000 0.000000 0.000000
		CHANNELS 3 Zrotation Yrotation Xrotation
		JOINT LeftUpLeg
		{
			OFFSET 1.363060 -1.794630 0.839290
			CHANNELS 3 Zrotation Yrotation Xrotation
			JOINT LeftLeg
			{
				OFFSET 2.448110 -6.726130 0.000000
				CHANNELS 3 Zrotation Yrotation Xrotation
				JOINT LeftFoot
				{
					OFFSET 2.562200 -7.039590 0.000000
					CHANNELS 3 Zrotation Yrotation Xrotation
					JOINT LeftToeBase
					{
						OFFSET 0.157640 -0.433110 2.322550
						CHANNELS 3 Zrotation Yrotation Xrotation
						End Site
						{
							OFFSET 0.000000 0.000000 0.000000
						}
					}
				}
			}
		}
	}
	JOINT RHipJoint
	{
		OFFSET 0.000000 0.000000 0.000000
		CHANNELS 3 Zrotation Yrotation Xrotation
		JOINT RightUpLeg
		{
			OFFSET -1.305520 -1.794630 0.839290
			CHANNELS 3 Zrotation Yrotation Xrotation
			JOINT RightLeg
			{
				OFFSET -2.542530 -6.985550 0.000000
				CHANNELS 3 Zrotation Yrotation Xrotation
				JOINT RightFoot
				{
					OFFSET -2.568260 -7.056230 0.000000
					CHANNELS 3 Zrotation Yrotation Xrotation
					JOINT RightToeBase
					{
						OFFSET -0.164730 -0.452590 2.363150
						CHANNELS 3 Zrotation Yrotation Xrotation
						End Site
						{
							OFFSET 0.000000 0.000000 0.000000
						}
					}
				}
			}
		}
	}
	JOINT LowerBack
	{
		OFFSET 0.000000 0.000000 0.000000
		CHANNELS 3 Zrotation Yrotation Xrotation
		JOINT Spine
		{
			OFFSET 0.028270 2.035590 -0.193380
			CHANNELS 3 Zrotation Yrotation Xrotation
			JOINT Spine1
			{
				OFFSET 0.056720 2.048850 -0.042750
				CHANNELS 3 Zrotation Yrotation Xrotation
				JOINT Neck
				{
					OFFSET 0.000000 0.000000 0.000000
					CHANNELS 3 Zrotation Yrotation Xrotation
					JOINT Neck1
					{
						OFFSET -0.054170 1.746240 0.172020
						CHANNELS 3 Zrotation Yrotation Xrotation
						JOINT Head
						{
							OFFSET 0.104070 1.761360 -0.123970
							CHANNELS 3 Zrotation Yrotation Xrotation
							End Site
							{
								OFFSET 0.000000 0.000000 0.000000
							}
						}
					}
				}
				JOINT LeftShoulder
				{
					OFFSET 0.000000 0.000000 0.000000
					CHANNELS 3 Zrotation Yrotation Xrotation
					JOINT LeftArm
					{
						OFFSET 3.362410 1.200890 -0.311210
						CHANNELS 3 Zrotation Yrotation Xrotation
						JOINT LeftForeArm
						{
							OFFSET 4.983000 -0.000000 -0.000000
							CHANNELS 3 Zrotation Yrotation Xrotation
							JOINT LeftHand
							{
								OFFSET 3.483560 -0.000000 -0.000000
								CHANNELS 3 Zrotation Yrotation Xrotation
								JOINT LeftFingerBase
								{
									OFFSET 0.000000 0.000000 0.000000
									CHANNELS 3 Zrotation Yrotation Xrotation
									JOINT LeftHandIndex1
									{
										OFFSET 0.715260 -0.000000 -0.000000
										CHANNELS 3 Zrotation Yrotation Xrotation
										End Site
										{
											OFFSET 0.000000 0.000000 0.000000
										}
									}
								}
								JOINT LThumb
								{
									OFFSET 0.000000 0.000000 0.000000
									CHANNELS 3 Zrotation Yrotation Xrotation
									End Site
									{
										OFFSET 0.000000 0.000000 0.000000
									}
								}
							}
						}
					}
				}
				JOINT RightShoulder
				{
					OFFSET 0.000000 0.000000 0.000000
					CHANNELS 3 Zrotation Yrotation Xrotation
					JOINT RightArm
					{
						OFFSET -3.136600 1.374050 -0.404650
						CHANNELS 3 Zrotation Yrotation Xrotation
						JOINT RightForeArm
						{
							OFFSET -5.241900 -0.000000 -0.000000
							CHANNELS 3 Zrotation Yrotation Xrotation
							JOINT RightHand
							{
								OFFSET -3.444170 -0.000000 -0.000000
								CHANNELS 3 Zrotation Yrotation Xrotation
								JOINT RightFingerBase
								{
									OFFSET 0.000000 0.000000 0.000000
									CHANNELS 3 Zrotation Yrotation Xrotation
									JOINT RightHandIndex1
									{
										OFFSET -0.622530 -0.000000 -0.000000
										CHANNELS 3 Zrotation Yrotation Xrotation
										End Site
										{
											OFFSET 0.000000 0.000000 0.000000
										}
									}
								}
								JOINT RThumb
								{
									OFFSET 0.000000 0.000000 0.000000
									CHANNELS 3 Zrotation Yrotation Xrotation
									End Site
									{
										OFFSET 0.000000 0.000000 0.000000
									}
								}
							}
						}
					}
				}
			}
		}
	}
}
MOTION
Frames: 9
Frame Time: 0.008333
1.007972 17.155833 1.807237 17.065739 -35.543923 -4.957208 -7.978518 1.140733 6.837323 -17.091355 -21.723528 -10.804956 -4.293617 -0.752075 1.601182 -1.197436 -9.258296 11.332832 -2.127200 0.000000 -41.742700 12.689593 0.414207 -5.298707 -19.211954 -40.087875 6.811751 0.060717 0.230305 0.742284 -4.144559 -26.206552 8.403910 -8.727400 -0.000000 -63.218400 -4.332107 0.134618 -2.578831 -0.735676 0.553617 -4.417944 -1.146479 0.499436 -5.441822 -2.037052 4.696514 4.426291 -2.323392 -0.329613 3.300346 0.000000 0.000000 0.000000 4.092183 -1.322119 -9.827103 -108.333568 -56.714065 53.337828 179.041487 -77.616701 179.798247 11.410769 -10.068586 -1.132905 -0.095305 1.141426 -0.000000 0.000000 0.000000 0.000000 0.000000 0.000000 0.000000 -1.347341 9.117912 4.366645 26.113318 8.004275 -29.585692 -0.381807 47.233173 -0.186411 -23.845423 -2.744310 0.496169 0.322659 -0.425031 -0.000000 0.000000 0.000000 0.000000 0.000000 0.000000 0.000000 
1.011387 17.147965 1.796841 17.292136 -35.242091 -5.383109 -8.052011 1.063911 6.794799 -17.428357 -21.500629 -10.230872 -4.346809 -0.796049 1.226150 -1.211705 -9.306917 11.434575 -2.142800 0.000000 -41.456801 12.620582 0.393483 -5.304728 -19.610190 -40.321187 7.093450 0.038933 0.193247 0.873314 -4.187739 -26.370248 8.254755 -8.711400 0.000000 -63.092300 -3.982691 0.435344 -2.611079 -0.612232 0.832593 -4.294579 -0.810112 0.787931 -4.979993 -3.601437 5.315672 4.199292 -2.218235 -0.319604 3.231459 0.000000 0.000000 0.000000 3.029482 -0.473658 -9.832979 -106.939136 -56.820127 52.283548 179.039986 -77.408427 179.802806 11.437863 -9.787899 -1.104299 -0.097882 1.111297 -0.000000 0.000000 0.000000 0.000000 0.000000 0.000000 0.000000 -2.892095 9.732459 4.687811 21.867284 11.736760 -32.932429 -0.526335 36.054920 -0.175189 -22.560186 -3.000893 0.524232 0.347785 -0.410326 -0.000000 0.000000 0.000000 0.000000 0.000000 0.000000 0.000000 
1.014535 17.142227 1.786386 17.584316 -35.118133 -5.761391 -8.153807 0.976485 6.732952 -17.715007 -21.272016 -9.774925 -4.387314 -0.839519 0.872748 -1.217504 -9.244005 11.532893 -2.126901 0.000000 -41.173500 12.532891 0.376076 -5.286701 -19.840449 -40.312583 7.191267 0.005086 0.155602 0.997564 -4.253607 -26.612948 8.036391 -8.701499 0.000000 -62.828500 -3.546713 0.747389 -2.624428 -0.472017 1.115465 -4.181597 -0.490825 1.077394 -4.588500 -5.268802 5.981141 3.885425 -2.094349 -0.307270 3.140068 0.000000 0.000000 0.000000 1.897308 0.430893 -9.837328 -105.723329 -56.898749 51.287306 179.023229 -77.153246 179.806858 11.462550 -9.541424 -1.078690 -0.097638 1.082108 -0.000000 0.000000 0.000000 0.000000 0.000000 0.000000 0.000000 -4.669764 10.414709 5.001201 17.727569 15.352768 -38.219581 -0.716243 24.746173 -0.157886 -21.037592 -2.500739 0.397604 0.374862 -0.394042 0.000000 0.000000 0.000000 0.000000 0.000000 0.000000 0.000000 
1.015993 17.138922 1.775987 17.924082 -35.117473 -6.071467 -8.271122 0.883917 6.663922 -17.945409 -21.077257 -9.456820 -4.416388 -0.879184 0.561286 -1.217212 -9.106093 11.638004 -2.091600 -0.000000 -40.905600 12.436710 0.362689 -5.249015 -19.914380 -40.097239 7.132131 -0.039204 0.120290 1.105432 -4.339434 -26.934470 7.773399 -8.706700 -0.000001 -62.440300 -3.064310 1.049806 -2.626940 -0.310982 1.386468 -4.094512 -0.135864 1.352543 -4.303947 -6.987049 6.845432 3.538826 -1.941092 -0.292885 3.042065 0.000000 0.000000 0.000000 0.669778 1.369564 -9.815008 -104.670684 -56.940579 50.359013 178.991220 -76.850471 179.810160 11.489481 -9.340051 -1.057764 -0.094687 1.055178 -0.000000 0.000000 0.000000 0.000000 0.000000 0.000000 0.000000 -6.625028 11.293070 5.267868 13.439245 18.448196 -46.696318 -1.023211 13.869112 -0.134723 -19.532045 -0.842162 0.080018 0.393027 -0.384008 0.000000 0.000000 0.000000 0.000000 0.000000 0.000000 0.000000 
1.014381 17.138052 1.766032 18.266343 -35.184424 -6.296128 -8.378436 0.796893 6.609475 -18.111517 -20.952852 -9.280892 -4.437002 -0.913443 0.306116 -1.213839 -8.928934 11.755800 -2.047700 -0.000000 -40.661100 12.352874 0.348735 -5.188025 -19.854698 -39.736120 6.954072 -0.090069 0.091512 1.188289 -4.438503 -27.317825 7.494176 -8.731200 -0.000000 -61.965000 -2.627145 1.325087 -2.648650 -0.134363 1.637851 -4.052218 0.315097 1.605807 -4.155464 -8.594424 8.179235 3.256960 -1.747861 -0.277354 2.964798 0.000000 0.000000 0.000000 -0.600384 2.246425 -9.738548 -103.811675 -56.899558 49.517694 178.948852 -76.545330 179.812487 11.513227 -9.197710 -1.042793 -0.089419 1.032989 -0.000000 0.000000 0.000000 0.000000 0.000000 0.000000 0.000000 -8.597628 12.637274 5.476279 8.853519 19.969719 -57.937923 -1.459321 4.616135 -0.113002 -18.776015 1.414597 -0.303287 0.403227 -0.379736 0.000000 0.000000 0.000000 0.000000 0.000000 0.000000 0.000000 
1.008959 17.138678 1.756574 18.560324 -35.245493 -6.436216 -8.445951 0.722910 6.588080 -18.220026 -20.933178 -9.216802 -4.455497 -0.942927 0.117173 -1.210871 -8.740988 11.884008 -2.001999 0.000000 -40.466900 12.305291 0.328822 -5.106367 -19.726475 -39.337593 6.721918 -0.139783 0.070267 1.252395 -4.537064 -27.704548 7.219956 -8.758800 0.000000 -61.471000 -2.353067 1.580363 -2.704254 0.016067 1.884051 -4.059550 0.787443 1.852785 -4.154442 -9.799343 9.931660 3.119616 -1.535607 -0.263064 2.930058 0.000000 0.000000 0.000000 -1.665677 2.897637 -9.629570 -103.312342 -56.693191 48.868049 178.906283 -76.328594 179.813844 11.506109 -9.147237 -1.035046 -0.082365 1.018918 -0.000000 0.000000 0.000000 0.000000 0.000000 0.000000 0.000000 -10.303333 14.430641 5.604200 4.880890 19.164824 -65.442993 -1.726471 -1.146358 -0.102567 -19.430651 1.544784 -0.330515 0.438568 -0.341543 0.000000 0.000000 0.000000 0.000000 0.000000 0.000000 0.000000 
1.000406 17.139785 1.746619 18.802287 -35.239731 -6.511636 -8.475277 0.655493 6.593552 -18.289817 -21.038492 -9.220597 -4.474145 -0.966020 -0.004462 -1.209053 -8.558921 12.023032 -1.959100 0.000000 -40.333500 12.288422 0.309864 -5.030422 -19.607947 -38.996090 6.508366 -0.182391 0.052770 1.306423 -4.623988 -28.042379 6.970488 -8.776100 0.000000 -61.026100 -2.235385 1.820613 -2.757326 0.119801 2.125928 -4.083649 1.186316 2.095230 -4.228504 -10.664198 11.367217 3.023088 -1.324772 -0.249868 2.909910 0.000000 0.000000 0.000000 -2.441595 3.325867 -9.561763 -103.224517 -56.361089 48.468600 178.860926 -76.186024 179.814557 11.459424 -9.199226 -1.034761 -0.073344 1.011364 -0.000000 0.000000 0.000000 0.000000 0.000000 0.000000 0.000000 -11.827919 15.951201 5.629476 2.065522 17.689597 -67.680767 -1.763327 -4.036448 -0.099386 -20.594269 -0.185714 -0.017203 0.494553 -0.275753 0.000000 0.000000 0.000000 0.000000 0.000000 0.000000 0.000000 
0.989212 17.141187 1.735823 18.993095 -35.133485 -6.532569 -8.476539 0.589007 6.621729 -18.326180 -21.273574 -9.265601 -4.492494 -0.981680 -0.067927 -1.208498 -8.395029 12.177576 -1.923201 -0.000000 -40.254300 12.290443 0.294890 -4.978371 -19.534335 -38.772353 6.353458 -0.213129 0.036843 1.345763 -4.692848 -28.306855 6.769981 -8.784200 0.000000 -60.675000 -2.229616 2.046723 -2.791410 0.186008 2.359616 -4.104709 1.503036 2.327049 -4.331860 -11.355125 12.086952 2.908487 -1.080224 -0.235074 2.889170 0.000000 0.000000 0.000000 -2.999010 3.556055 -9.543509 -103.451308 -55.979751 48.280000 178.812531 -76.070587 179.814807 11.387130 -9.328704 -1.040154 -0.063059 1.008107 -0.000000 0.000000 0.000000 0.000000 0.000000 0.000000 0.000000 -13.592658 16.877842 5.517733 1.335925 16.245130 -68.646974 -1.867030 -2.967273 -0.107344 -21.697714 -2.920312 0.530514 0.542773 -0.213786 0.000000 0.000000 0.000000 0.000000 0.000000 0.000000 0.000000 
0.975691 17.142888 1.724410 19.134814 -34.931779 -6.505934 -8.456400 0.526307 6.672573 -18.329371 -21.628549 -9.337350 -4.508619 -0.989328 -0.093833 -1.208143 -8.253395 12.347106 -1.896700 -0.000000 -40.217700 12.302568 0.290614 -4.961120 -19.520022 -38.707173 6.272311 -0.227875 0.024893 1.361468 -4.737832 -28.478911 6.636125 -8.784899 -0.000000 -60.448100 -2.293250 2.227921 -2.806877 0.245303 2.554611 -4.101738 1.843039 2.517102 -4.364021 -12.094962 12.075200 2.682440 -0.818870 -0.217968 2.840349 0.000000 0.000000 0.000000 -3.491791 3.701431 -9.610101 -103.887591 -55.607294 48.206939 178.747143 -75.905324 179.814827 11.302391 -9.509864 -1.049377 -0.050512 1.005029 -0.000000 0.000000 0.000000 0.000000 0.000000 0.000000 0.000000 -15.524751 17.080527 5.434316 0.230411 15.854322 -71.222942 -2.059094 -2.773409 -0.111978 -22.769144 -3.333431 0.646131 0.589611 -0.199285 0.000000 0.000000 0.000000 0.000000 0.000000 0.000000 0.000000 
